<mxfile host="65bd71144e">
    <diagram name="Page-1" id="2c0d36ab-eaac-3732-788b-9136903baeff">
        <mxGraphModel dx="704" dy="295" grid="1" gridSize="10" guides="1" tooltips="1" connect="1" arrows="1" fold="1" page="1" pageScale="1.5" pageWidth="1169" pageHeight="827" background="none" math="0" shadow="0">
            <root>
                <mxCell id="0"/>
                <mxCell id="1" parent="0"/>
                <mxCell id="132" style="edgeStyle=none;html=1;exitX=0;exitY=0.5;exitDx=0;exitDy=0;entryX=0;entryY=0.5;entryDx=0;entryDy=0;" parent="1" source="2" target="130" edge="1">
                    <mxGeometry relative="1" as="geometry">
                        <mxPoint x="152" y="450" as="targetPoint"/>
                        <Array as="points">
                            <mxPoint x="152" y="200"/>
                            <mxPoint x="152" y="440"/>
                            <mxPoint x="152" y="920"/>
                        </Array>
                    </mxGeometry>
                </mxCell>
                <mxCell id="157" style="edgeStyle=none;html=1;exitX=0;exitY=0.5;exitDx=0;exitDy=0;entryX=0;entryY=0.5;entryDx=0;entryDy=0;" parent="1" source="2" target="141" edge="1">
                    <mxGeometry relative="1" as="geometry">
                        <mxPoint x="212" y="560" as="targetPoint"/>
                        <Array as="points">
                            <mxPoint x="152" y="200"/>
                            <mxPoint x="152" y="320"/>
                        </Array>
                    </mxGeometry>
                </mxCell>
                <mxCell id="158" style="edgeStyle=none;html=1;exitX=0;exitY=0.5;exitDx=0;exitDy=0;" parent="1" source="2" edge="1">
                    <mxGeometry relative="1" as="geometry">
                        <mxPoint x="262" y="440" as="targetPoint"/>
                        <Array as="points">
                            <mxPoint x="152" y="200"/>
                            <mxPoint x="152" y="440"/>
                        </Array>
                    </mxGeometry>
                </mxCell>
                <mxCell id="159" style="edgeStyle=none;html=1;exitX=0;exitY=0.5;exitDx=0;exitDy=0;entryX=0;entryY=0.5;entryDx=0;entryDy=0;" parent="1" source="2" target="144" edge="1">
                    <mxGeometry relative="1" as="geometry">
                        <mxPoint x="152" y="199.82352941176475" as="targetPoint"/>
                        <Array as="points">
                            <mxPoint x="152" y="200"/>
                            <mxPoint x="152" y="560"/>
                        </Array>
                    </mxGeometry>
                </mxCell>
                <mxCell id="160" style="edgeStyle=none;html=1;exitX=0;exitY=0.5;exitDx=0;exitDy=0;entryX=0;entryY=0.5;entryDx=0;entryDy=0;" parent="1" source="2" target="143" edge="1">
                    <mxGeometry relative="1" as="geometry">
                        <Array as="points">
                            <mxPoint x="152" y="200"/>
                            <mxPoint x="152" y="680"/>
                        </Array>
                    </mxGeometry>
                </mxCell>
                <mxCell id="161" style="edgeStyle=none;html=1;exitX=0;exitY=0.5;exitDx=0;exitDy=0;entryX=0;entryY=0.5;entryDx=0;entryDy=0;" parent="1" source="2" target="145" edge="1">
                    <mxGeometry relative="1" as="geometry">
                        <Array as="points">
                            <mxPoint x="152" y="200"/>
                            <mxPoint x="152" y="800"/>
                        </Array>
                    </mxGeometry>
                </mxCell>
                <mxCell id="162" style="edgeStyle=none;html=1;exitX=0;exitY=0.5;exitDx=0;exitDy=0;entryX=0;entryY=0.5;entryDx=0;entryDy=0;" parent="1" source="2" target="148" edge="1">
                    <mxGeometry relative="1" as="geometry">
                        <Array as="points">
                            <mxPoint x="152" y="200"/>
                            <mxPoint x="152" y="1040"/>
                        </Array>
                    </mxGeometry>
                </mxCell>
                <mxCell id="163" style="edgeStyle=none;html=1;exitX=0;exitY=0.5;exitDx=0;exitDy=0;entryX=0;entryY=0.5;entryDx=0;entryDy=0;" parent="1" source="2" target="154" edge="1">
                    <mxGeometry relative="1" as="geometry">
                        <Array as="points">
                            <mxPoint x="152" y="200"/>
                            <mxPoint x="152" y="1640"/>
                        </Array>
                    </mxGeometry>
                </mxCell>
                <mxCell id="164" style="edgeStyle=none;html=1;exitX=0;exitY=0.5;exitDx=0;exitDy=0;entryX=0;entryY=0.5;entryDx=0;entryDy=0;" parent="1" source="2" target="149" edge="1">
                    <mxGeometry relative="1" as="geometry">
                        <Array as="points">
                            <mxPoint x="152" y="200"/>
                            <mxPoint x="152" y="1160"/>
                        </Array>
                    </mxGeometry>
                </mxCell>
                <mxCell id="165" style="edgeStyle=none;html=1;exitX=0;exitY=0.5;exitDx=0;exitDy=0;entryX=0;entryY=0.75;entryDx=0;entryDy=0;" parent="1" source="2" target="153" edge="1">
                    <mxGeometry relative="1" as="geometry">
                        <Array as="points">
                            <mxPoint x="152" y="200"/>
                            <mxPoint x="152" y="1540"/>
                        </Array>
                    </mxGeometry>
                </mxCell>
                <mxCell id="166" style="edgeStyle=none;html=1;exitX=0;exitY=0.5;exitDx=0;exitDy=0;entryX=0;entryY=0.5;entryDx=0;entryDy=0;" parent="1" source="2" target="150" edge="1">
                    <mxGeometry relative="1" as="geometry">
                        <Array as="points">
                            <mxPoint x="152" y="200"/>
                            <mxPoint x="152" y="1280"/>
                        </Array>
                    </mxGeometry>
                </mxCell>
                <mxCell id="167" style="edgeStyle=none;html=1;exitX=0;exitY=0.5;exitDx=0;exitDy=0;entryX=0;entryY=0.5;entryDx=0;entryDy=0;" parent="1" source="2" target="151" edge="1">
                    <mxGeometry relative="1" as="geometry">
                        <Array as="points">
                            <mxPoint x="152" y="200"/>
                            <mxPoint x="152" y="1400"/>
                        </Array>
                    </mxGeometry>
                </mxCell>
                <mxCell id="196" style="edgeStyle=none;html=1;exitX=0;exitY=0.5;exitDx=0;exitDy=0;entryX=0;entryY=0.5;entryDx=0;entryDy=0;shadow=0;" parent="1" source="2" target="194" edge="1">
                    <mxGeometry relative="1" as="geometry">
                        <Array as="points">
                            <mxPoint x="152" y="200"/>
                            <mxPoint x="152" y="1760"/>
                        </Array>
                    </mxGeometry>
                </mxCell>
                <mxCell id="197" style="edgeStyle=none;html=1;exitX=0;exitY=0.5;exitDx=0;exitDy=0;entryX=0;entryY=0.5;entryDx=0;entryDy=0;shadow=0;" parent="1" source="2" target="195" edge="1">
                    <mxGeometry relative="1" as="geometry">
                        <Array as="points">
                            <mxPoint x="152" y="200"/>
                            <mxPoint x="152" y="1880"/>
                        </Array>
                    </mxGeometry>
                </mxCell>
                <mxCell id="2" value="Home pageÂ " style="rounded=1;fillColor=#6a00ff;strokeColor=#3700CC;fontColor=#ffffff;fontStyle=1;fontFamily=Tahoma;fontSize=14" parent="1" vertex="1">
                    <mxGeometry x="232" y="160" width="190" height="80" as="geometry"/>
                </mxCell>
                <mxCell id="188" style="edgeStyle=none;html=1;exitX=0;exitY=0.5;exitDx=0;exitDy=0;shadow=0;entryX=0;entryY=0.5;entryDx=0;entryDy=0;" parent="1" source="12" target="191" edge="1">
                    <mxGeometry relative="1" as="geometry">
                        <mxPoint x="912" y="490" as="targetPoint"/>
                        <Array as="points">
                            <mxPoint x="912" y="200"/>
                            <mxPoint x="912" y="317"/>
                        </Array>
                    </mxGeometry>
                </mxCell>
                <mxCell id="189" style="edgeStyle=none;html=1;exitX=0;exitY=0.5;exitDx=0;exitDy=0;shadow=0;entryX=0;entryY=0.5;entryDx=0;entryDy=0;" parent="1" source="12" target="192" edge="1">
                    <mxGeometry relative="1" as="geometry">
                        <mxPoint x="922" y="630" as="targetPoint"/>
                        <Array as="points">
                            <mxPoint x="912" y="200"/>
                            <mxPoint x="912" y="437"/>
                        </Array>
                    </mxGeometry>
                </mxCell>
                <mxCell id="190" style="edgeStyle=none;html=1;exitX=0;exitY=0.5;exitDx=0;exitDy=0;shadow=0;entryX=0;entryY=0.5;entryDx=0;entryDy=0;" parent="1" source="12" target="193" edge="1">
                    <mxGeometry relative="1" as="geometry">
                        <mxPoint x="932" y="720" as="targetPoint"/>
                        <Array as="points">
                            <mxPoint x="912" y="200"/>
                            <mxPoint x="912" y="557"/>
                        </Array>
                    </mxGeometry>
                </mxCell>
                <mxCell id="12" value="Products" style="rounded=1;fillColor=#6a00ff;strokeColor=#3700CC;fontColor=#ffffff;fontStyle=1;fontFamily=Tahoma;fontSize=14" parent="1" vertex="1">
                    <mxGeometry x="953" y="160" width="190" height="80" as="geometry"/>
                </mxCell>
                <mxCell id="183" style="edgeStyle=none;html=1;exitX=0;exitY=0.5;exitDx=0;exitDy=0;entryX=0;entryY=0.5;entryDx=0;entryDy=0;shadow=0;" parent="1" source="13" target="179" edge="1">
                    <mxGeometry relative="1" as="geometry">
                        <Array as="points">
                            <mxPoint x="552" y="200"/>
                            <mxPoint x="552" y="320"/>
                        </Array>
                    </mxGeometry>
                </mxCell>
                <mxCell id="184" style="edgeStyle=none;html=1;exitX=0;exitY=0.5;exitDx=0;exitDy=0;entryX=0;entryY=0.5;entryDx=0;entryDy=0;shadow=0;" parent="1" source="13" target="180" edge="1">
                    <mxGeometry relative="1" as="geometry">
                        <Array as="points">
                            <mxPoint x="552" y="200"/>
                            <mxPoint x="552" y="440"/>
                        </Array>
                    </mxGeometry>
                </mxCell>
                <mxCell id="185" style="edgeStyle=none;html=1;exitX=0;exitY=0.5;exitDx=0;exitDy=0;entryX=0;entryY=0.5;entryDx=0;entryDy=0;shadow=0;" parent="1" source="13" target="181" edge="1">
                    <mxGeometry relative="1" as="geometry">
                        <Array as="points">
                            <mxPoint x="552" y="200"/>
                            <mxPoint x="552" y="560"/>
                        </Array>
                    </mxGeometry>
                </mxCell>
                <mxCell id="13" value="Introduce" style="rounded=1;fillColor=#6a00ff;strokeColor=#3700CC;fontColor=#ffffff;fontStyle=1;fontFamily=Tahoma;fontSize=14" parent="1" vertex="1">
                    <mxGeometry x="592" y="160" width="190" height="80" as="geometry"/>
                </mxCell>
                <mxCell id="172" style="edgeStyle=none;html=1;exitX=0;exitY=0.5;exitDx=0;exitDy=0;entryX=0.5;entryY=0;entryDx=0;entryDy=0;shadow=0;" parent="1" source="125" target="2" edge="1">
                    <mxGeometry relative="1" as="geometry">
                        <Array as="points">
                            <mxPoint x="327" y="60"/>
                        </Array>
                    </mxGeometry>
                </mxCell>
                <mxCell id="173" style="edgeStyle=none;html=1;exitX=0;exitY=0.5;exitDx=0;exitDy=0;entryX=0.5;entryY=0;entryDx=0;entryDy=0;shadow=0;" parent="1" source="125" target="13" edge="1">
                    <mxGeometry relative="1" as="geometry">
                        <Array as="points">
                            <mxPoint x="687" y="60"/>
                        </Array>
                    </mxGeometry>
                </mxCell>
                <mxCell id="174" style="edgeStyle=none;html=1;exitX=0;exitY=0.5;exitDx=0;exitDy=0;entryX=0.5;entryY=0;entryDx=0;entryDy=0;shadow=0;" parent="1" source="125" target="12" edge="1">
                    <mxGeometry relative="1" as="geometry">
                        <Array as="points">
                            <mxPoint x="1048" y="60"/>
                        </Array>
                    </mxGeometry>
                </mxCell>
                <mxCell id="175" style="edgeStyle=none;html=1;exitX=0;exitY=0.5;exitDx=0;exitDy=0;entryX=0.5;entryY=0;entryDx=0;entryDy=0;shadow=0;" parent="1" source="125" target="206" edge="1">
                    <mxGeometry relative="1" as="geometry">
                        <mxPoint x="1615" y="160" as="targetPoint"/>
                        <Array as="points">
                            <mxPoint x="1410" y="60"/>
                        </Array>
                    </mxGeometry>
                </mxCell>
                <mxCell id="176" style="edgeStyle=none;html=1;exitX=1;exitY=0.5;exitDx=0;exitDy=0;entryX=1;entryY=0;entryDx=0;entryDy=0;shadow=0;" parent="1" source="125" target="213" edge="1">
                    <mxGeometry relative="1" as="geometry">
                        <mxPoint x="2065" y="70" as="targetPoint"/>
                        <Array as="points">
                            <mxPoint x="1865" y="60"/>
                        </Array>
                    </mxGeometry>
                </mxCell>
                <mxCell id="177" style="edgeStyle=none;html=1;exitX=1;exitY=0.5;exitDx=0;exitDy=0;entryX=0.5;entryY=0;entryDx=0;entryDy=0;shadow=0;" parent="1" source="125" target="221" edge="1">
                    <mxGeometry relative="1" as="geometry">
                        <mxPoint x="2355" y="80" as="targetPoint"/>
                        <Array as="points">
                            <mxPoint x="2134" y="60"/>
                        </Array>
                    </mxGeometry>
                </mxCell>
                <mxCell id="178" style="edgeStyle=none;html=1;exitX=1;exitY=0.5;exitDx=0;exitDy=0;entryX=0.5;entryY=0;entryDx=0;entryDy=0;shadow=0;" parent="1" source="125" target="228" edge="1">
                    <mxGeometry relative="1" as="geometry">
                        <mxPoint x="2755" y="10" as="targetPoint"/>
                        <Array as="points">
                            <mxPoint x="2494" y="60"/>
                        </Array>
                    </mxGeometry>
                </mxCell>
                <mxCell id="246" style="edgeStyle=none;html=1;exitX=1;exitY=0.5;exitDx=0;exitDy=0;shadow=0;entryX=0.5;entryY=0;entryDx=0;entryDy=0;" parent="1" source="125" target="235" edge="1">
                    <mxGeometry relative="1" as="geometry">
                        <mxPoint x="2830" y="60.22222222222217" as="targetPoint"/>
                        <Array as="points">
                            <mxPoint x="2854" y="60"/>
                        </Array>
                    </mxGeometry>
                </mxCell>
                <mxCell id="247" style="edgeStyle=none;html=1;exitX=1;exitY=0.5;exitDx=0;exitDy=0;entryX=0.5;entryY=0;entryDx=0;entryDy=0;shadow=0;" parent="1" source="125" target="242" edge="1">
                    <mxGeometry relative="1" as="geometry">
                        <Array as="points">
                            <mxPoint x="3214" y="60"/>
                        </Array>
                    </mxGeometry>
                </mxCell>
                <mxCell id="125" value="Sitemap" style="rounded=1;fillColor=#23445D;gradientColor=none;strokeColor=none;fontColor=#FFFFFF;fontStyle=1;fontFamily=Tahoma;fontSize=14" parent="1" vertex="1">
                    <mxGeometry x="1660" y="20" width="190" height="80" as="geometry"/>
                </mxCell>
                <mxCell id="130" value="Products section" style="rounded=1;fillColor=#0050ef;strokeColor=#001DBC;fontColor=#ffffff;fontStyle=1;fontFamily=Tahoma;fontSize=14" parent="1" vertex="1">
                    <mxGeometry x="272" y="880" width="200" height="80" as="geometry"/>
                </mxCell>
                <mxCell id="141" value="Header/Nav" style="rounded=1;fillColor=#0050ef;strokeColor=#001DBC;fontColor=#ffffff;fontStyle=1;fontFamily=Tahoma;fontSize=14" parent="1" vertex="1">
                    <mxGeometry x="267" y="280" width="205" height="80" as="geometry"/>
                </mxCell>
                <mxCell id="142" value="Mainslider" style="rounded=1;fillColor=#0050ef;strokeColor=#001DBC;fontColor=#ffffff;fontStyle=1;fontFamily=Tahoma;fontSize=14" parent="1" vertex="1">
                    <mxGeometry x="267" y="400" width="205" height="80" as="geometry"/>
                </mxCell>
                <mxCell id="143" value="Why us section" style="rounded=1;fillColor=#0050ef;strokeColor=#001DBC;fontColor=#ffffff;fontStyle=1;fontFamily=Tahoma;fontSize=14" parent="1" vertex="1">
                    <mxGeometry x="267" y="640" width="205" height="80" as="geometry"/>
                </mxCell>
                <mxCell id="144" value="Introduce section" style="rounded=1;fillColor=#0050ef;strokeColor=#001DBC;fontColor=#ffffff;fontStyle=1;fontFamily=Tahoma;fontSize=14" parent="1" vertex="1">
                    <mxGeometry x="267" y="520" width="205" height="80" as="geometry"/>
                </mxCell>
                <mxCell id="145" value="Features section" style="rounded=1;fillColor=#0050ef;strokeColor=#001DBC;fontColor=#ffffff;fontStyle=1;fontFamily=Tahoma;fontSize=14" parent="1" vertex="1">
                    <mxGeometry x="272" y="760" width="200" height="80" as="geometry"/>
                </mxCell>
                <mxCell id="148" value="Pictrues videos section" style="rounded=1;fillColor=#0050ef;strokeColor=#001DBC;fontColor=#ffffff;fontStyle=1;fontFamily=Tahoma;fontSize=14" parent="1" vertex="1">
                    <mxGeometry x="272" y="1000" width="200" height="80" as="geometry"/>
                </mxCell>
                <mxCell id="149" value="Newspapers section" style="rounded=1;fillColor=#0050ef;strokeColor=#001DBC;fontColor=#ffffff;fontStyle=1;fontFamily=Tahoma;fontSize=14" parent="1" vertex="1">
                    <mxGeometry x="272" y="1120" width="200" height="80" as="geometry"/>
                </mxCell>
                <mxCell id="150" value="Customer reviews section" style="rounded=1;fillColor=#0050ef;strokeColor=#001DBC;fontColor=#ffffff;fontStyle=1;fontFamily=Tahoma;fontSize=14" parent="1" vertex="1">
                    <mxGeometry x="272" y="1240" width="200" height="80" as="geometry"/>
                </mxCell>
                <mxCell id="151" value="Knowledge section" style="rounded=1;fillColor=#0050ef;strokeColor=#001DBC;fontColor=#ffffff;fontStyle=1;fontFamily=Tahoma;fontSize=14" parent="1" vertex="1">
                    <mxGeometry x="272" y="1360" width="200" height="80" as="geometry"/>
                </mxCell>
                <mxCell id="153" value="Contact section" style="rounded=1;fillColor=#0050ef;strokeColor=#001DBC;fontColor=#ffffff;fontStyle=1;fontFamily=Tahoma;fontSize=14" parent="1" vertex="1">
                    <mxGeometry x="272" y="1480" width="200" height="80" as="geometry"/>
                </mxCell>
                <mxCell id="154" value="Footer/About us section" style="rounded=1;fillColor=#0050ef;strokeColor=#001DBC;fontColor=#ffffff;fontStyle=1;fontFamily=Tahoma;fontSize=14" parent="1" vertex="1">
                    <mxGeometry x="272" y="1600" width="200" height="80" as="geometry"/>
                </mxCell>
                <mxCell id="170" value="aaa" style="endArrow=classic;html=1;shadow=0;entryX=0;entryY=0.25;entryDx=0;entryDy=0;exitX=1;exitY=0.5;exitDx=0;exitDy=0;" parent="1" source="144" target="13" edge="1">
                    <mxGeometry relative="1" as="geometry">
                        <mxPoint x="512" y="440" as="sourcePoint"/>
                        <mxPoint x="572" y="400" as="targetPoint"/>
                        <Array as="points">
                            <mxPoint x="512" y="560"/>
                            <mxPoint x="512" y="180"/>
                        </Array>
                    </mxGeometry>
                </mxCell>
                <mxCell id="171" value="page" style="edgeLabel;resizable=0;html=1;align=center;verticalAlign=middle;fontSize=16;" parent="170" connectable="0" vertex="1">
                    <mxGeometry relative="1" as="geometry"/>
                </mxCell>
                <mxCell id="179" value="Header/Nav" style="rounded=1;fillColor=#0050ef;strokeColor=#001DBC;fontColor=#ffffff;fontStyle=1;fontFamily=Tahoma;fontSize=14" parent="1" vertex="1">
                    <mxGeometry x="632" y="280" width="200" height="80" as="geometry"/>
                </mxCell>
                <mxCell id="180" value="Content" style="rounded=1;fillColor=#0050ef;strokeColor=#001DBC;fontColor=#ffffff;fontStyle=1;fontFamily=Tahoma;fontSize=14" parent="1" vertex="1">
                    <mxGeometry x="632" y="400" width="200" height="80" as="geometry"/>
                </mxCell>
                <mxCell id="181" value="Footer/About us section" style="rounded=1;fillColor=#0050ef;strokeColor=#001DBC;fontColor=#ffffff;fontStyle=1;fontFamily=Tahoma;fontSize=14" parent="1" vertex="1">
                    <mxGeometry x="632" y="520" width="200" height="80" as="geometry"/>
                </mxCell>
                <mxCell id="186" value="" style="endArrow=classic;html=1;shadow=0;exitX=1;exitY=0.5;exitDx=0;exitDy=0;entryX=0;entryY=0.25;entryDx=0;entryDy=0;" parent="1" source="130" target="12" edge="1">
                    <mxGeometry relative="1" as="geometry">
                        <mxPoint x="852" y="530" as="sourcePoint"/>
                        <mxPoint x="952" y="530" as="targetPoint"/>
                        <Array as="points">
                            <mxPoint x="872" y="920"/>
                            <mxPoint x="872" y="180"/>
                        </Array>
                    </mxGeometry>
                </mxCell>
                <mxCell id="187" value="page" style="edgeLabel;resizable=0;html=1;align=center;verticalAlign=middle;fontSize=16;" parent="186" connectable="0" vertex="1">
                    <mxGeometry relative="1" as="geometry"/>
                </mxCell>
                <mxCell id="191" value="Header/Nav" style="rounded=1;fillColor=#0050ef;strokeColor=#001DBC;fontColor=#ffffff;fontStyle=1;fontFamily=Tahoma;fontSize=14" parent="1" vertex="1">
                    <mxGeometry x="992" y="277" width="200" height="80" as="geometry"/>
                </mxCell>
                <mxCell id="192" value="Products layout" style="rounded=1;fillColor=#0050ef;strokeColor=#001DBC;fontColor=#ffffff;fontStyle=1;fontFamily=Tahoma;fontSize=14" parent="1" vertex="1">
                    <mxGeometry x="992" y="397" width="200" height="80" as="geometry"/>
                </mxCell>
                <mxCell id="193" value="Footer/About us section" style="rounded=1;fillColor=#0050ef;strokeColor=#001DBC;fontColor=#ffffff;fontStyle=1;fontFamily=Tahoma;fontSize=14" parent="1" vertex="1">
                    <mxGeometry x="992" y="517" width="200" height="80" as="geometry"/>
                </mxCell>
                <mxCell id="194" value="Cart" style="rounded=1;fillColor=#0050ef;strokeColor=#001DBC;fontColor=#ffffff;fontStyle=1;fontFamily=Tahoma;fontSize=14" parent="1" vertex="1">
                    <mxGeometry x="272" y="1720" width="200" height="80" as="geometry"/>
                </mxCell>
                <mxCell id="195" value="Payment" style="rounded=1;fillColor=#0050ef;strokeColor=#001DBC;fontColor=#ffffff;fontStyle=1;fontFamily=Tahoma;fontSize=14" parent="1" vertex="1">
                    <mxGeometry x="272" y="1840" width="200" height="80" as="geometry"/>
                </mxCell>
                <mxCell id="203" style="edgeStyle=none;html=1;exitX=0;exitY=0.5;exitDx=0;exitDy=0;shadow=0;entryX=0;entryY=0.5;entryDx=0;entryDy=0;" parent="1" source="206" target="207" edge="1">
                    <mxGeometry relative="1" as="geometry">
                        <mxPoint x="1274" y="493" as="targetPoint"/>
                        <Array as="points">
                            <mxPoint x="1274" y="203"/>
                            <mxPoint x="1274" y="320"/>
                        </Array>
                    </mxGeometry>
                </mxCell>
                <mxCell id="204" style="edgeStyle=none;html=1;exitX=0;exitY=0.5;exitDx=0;exitDy=0;shadow=0;entryX=0;entryY=0.5;entryDx=0;entryDy=0;" parent="1" source="206" target="208" edge="1">
                    <mxGeometry relative="1" as="geometry">
                        <mxPoint x="1284" y="633" as="targetPoint"/>
                        <Array as="points">
                            <mxPoint x="1274" y="203"/>
                            <mxPoint x="1274" y="440"/>
                        </Array>
                    </mxGeometry>
                </mxCell>
                <mxCell id="205" style="edgeStyle=none;html=1;exitX=0;exitY=0.5;exitDx=0;exitDy=0;shadow=0;entryX=0;entryY=0.5;entryDx=0;entryDy=0;" parent="1" source="206" target="209" edge="1">
                    <mxGeometry relative="1" as="geometry">
                        <mxPoint x="1294" y="723" as="targetPoint"/>
                        <Array as="points">
                            <mxPoint x="1274" y="203"/>
                            <mxPoint x="1274" y="560"/>
                        </Array>
                    </mxGeometry>
                </mxCell>
                <mxCell id="206" value="Cer-Ann" style="rounded=1;fillColor=#6a00ff;strokeColor=#3700CC;fontColor=#ffffff;fontStyle=1;fontFamily=Tahoma;fontSize=14" parent="1" vertex="1">
                    <mxGeometry x="1315" y="163" width="190" height="80" as="geometry"/>
                </mxCell>
                <mxCell id="207" value="Header/Nav" style="rounded=1;fillColor=#0050ef;strokeColor=#001DBC;fontColor=#ffffff;fontStyle=1;fontFamily=Tahoma;fontSize=14" parent="1" vertex="1">
                    <mxGeometry x="1354" y="280" width="200" height="80" as="geometry"/>
                </mxCell>
                <mxCell id="208" value="Content" style="rounded=1;fillColor=#0050ef;strokeColor=#001DBC;fontColor=#ffffff;fontStyle=1;fontFamily=Tahoma;fontSize=14" parent="1" vertex="1">
                    <mxGeometry x="1354" y="400" width="200" height="80" as="geometry"/>
                </mxCell>
                <mxCell id="209" value="Footer/About us section" style="rounded=1;fillColor=#0050ef;strokeColor=#001DBC;fontColor=#ffffff;fontStyle=1;fontFamily=Tahoma;fontSize=14" parent="1" vertex="1">
                    <mxGeometry x="1354" y="520" width="200" height="80" as="geometry"/>
                </mxCell>
                <mxCell id="210" style="edgeStyle=none;html=1;exitX=0;exitY=0.5;exitDx=0;exitDy=0;shadow=0;entryX=0;entryY=0.5;entryDx=0;entryDy=0;" parent="1" source="213" target="214" edge="1">
                    <mxGeometry relative="1" as="geometry">
                        <mxPoint x="1634" y="490" as="targetPoint"/>
                        <Array as="points">
                            <mxPoint x="1634" y="200"/>
                            <mxPoint x="1634" y="317"/>
                        </Array>
                    </mxGeometry>
                </mxCell>
                <mxCell id="211" style="edgeStyle=none;html=1;exitX=0;exitY=0.5;exitDx=0;exitDy=0;shadow=0;entryX=0;entryY=0.5;entryDx=0;entryDy=0;" parent="1" source="213" target="215" edge="1">
                    <mxGeometry relative="1" as="geometry">
                        <mxPoint x="1644" y="630" as="targetPoint"/>
                        <Array as="points">
                            <mxPoint x="1634" y="200"/>
                            <mxPoint x="1634" y="437"/>
                        </Array>
                    </mxGeometry>
                </mxCell>
                <mxCell id="212" style="edgeStyle=none;html=1;exitX=0;exitY=0.5;exitDx=0;exitDy=0;shadow=0;entryX=0;entryY=0.5;entryDx=0;entryDy=0;" parent="1" source="213" target="216" edge="1">
                    <mxGeometry relative="1" as="geometry">
                        <mxPoint x="1654" y="720" as="targetPoint"/>
                        <Array as="points">
                            <mxPoint x="1634" y="200"/>
                            <mxPoint x="1634" y="557"/>
                        </Array>
                    </mxGeometry>
                </mxCell>
                <mxCell id="213" value="Knowledge" style="rounded=1;fillColor=#6a00ff;strokeColor=#3700CC;fontColor=#ffffff;fontStyle=1;fontFamily=Tahoma;fontSize=14" parent="1" vertex="1">
                    <mxGeometry x="1675" y="160" width="190" height="80" as="geometry"/>
                </mxCell>
                <mxCell id="214" value="Header/Nav" style="rounded=1;fillColor=#0050ef;strokeColor=#001DBC;fontColor=#ffffff;fontStyle=1;fontFamily=Tahoma;fontSize=14" parent="1" vertex="1">
                    <mxGeometry x="1714" y="277" width="200" height="80" as="geometry"/>
                </mxCell>
                <mxCell id="215" value="Content" style="rounded=1;fillColor=#0050ef;strokeColor=#001DBC;fontColor=#ffffff;fontStyle=1;fontFamily=Tahoma;fontSize=14" parent="1" vertex="1">
                    <mxGeometry x="1714" y="397" width="200" height="80" as="geometry"/>
                </mxCell>
                <mxCell id="216" value="Footer/About us section" style="rounded=1;fillColor=#0050ef;strokeColor=#001DBC;fontColor=#ffffff;fontStyle=1;fontFamily=Tahoma;fontSize=14" parent="1" vertex="1">
                    <mxGeometry x="1714" y="517" width="200" height="80" as="geometry"/>
                </mxCell>
                <mxCell id="218" style="edgeStyle=none;html=1;exitX=0;exitY=0.5;exitDx=0;exitDy=0;shadow=0;entryX=0;entryY=0.5;entryDx=0;entryDy=0;" parent="1" source="221" target="222" edge="1">
                    <mxGeometry relative="1" as="geometry">
                        <mxPoint x="1998" y="494" as="targetPoint"/>
                        <Array as="points">
                            <mxPoint x="1998" y="204"/>
                            <mxPoint x="1998" y="321"/>
                        </Array>
                    </mxGeometry>
                </mxCell>
                <mxCell id="219" style="edgeStyle=none;html=1;exitX=0;exitY=0.5;exitDx=0;exitDy=0;shadow=0;entryX=0;entryY=0.5;entryDx=0;entryDy=0;" parent="1" source="221" target="223" edge="1">
                    <mxGeometry relative="1" as="geometry">
                        <mxPoint x="2008" y="634" as="targetPoint"/>
                        <Array as="points">
                            <mxPoint x="1998" y="204"/>
                            <mxPoint x="1998" y="441"/>
                        </Array>
                    </mxGeometry>
                </mxCell>
                <mxCell id="220" style="edgeStyle=none;html=1;exitX=0;exitY=0.5;exitDx=0;exitDy=0;shadow=0;entryX=0;entryY=0.5;entryDx=0;entryDy=0;" parent="1" source="221" target="224" edge="1">
                    <mxGeometry relative="1" as="geometry">
                        <mxPoint x="2018" y="724" as="targetPoint"/>
                        <Array as="points">
                            <mxPoint x="1998" y="204"/>
                            <mxPoint x="1998" y="561"/>
                        </Array>
                    </mxGeometry>
                </mxCell>
                <mxCell id="221" value="Newspapers" style="rounded=1;fillColor=#6a00ff;strokeColor=#3700CC;fontColor=#ffffff;fontStyle=1;fontFamily=Tahoma;fontSize=14" parent="1" vertex="1">
                    <mxGeometry x="2039" y="163" width="190" height="80" as="geometry"/>
                </mxCell>
                <mxCell id="222" value="Header/Nav" style="rounded=1;fillColor=#0050ef;strokeColor=#001DBC;fontColor=#ffffff;fontStyle=1;fontFamily=Tahoma;fontSize=14" parent="1" vertex="1">
                    <mxGeometry x="2078" y="281" width="200" height="80" as="geometry"/>
                </mxCell>
                <mxCell id="223" value="Content" style="rounded=1;fillColor=#0050ef;strokeColor=#001DBC;fontColor=#ffffff;fontStyle=1;fontFamily=Tahoma;fontSize=14" parent="1" vertex="1">
                    <mxGeometry x="2078" y="401" width="200" height="80" as="geometry"/>
                </mxCell>
                <mxCell id="224" value="Footer/About us section" style="rounded=1;fillColor=#0050ef;strokeColor=#001DBC;fontColor=#ffffff;fontStyle=1;fontFamily=Tahoma;fontSize=14" parent="1" vertex="1">
                    <mxGeometry x="2078" y="521" width="200" height="80" as="geometry"/>
                </mxCell>
                <mxCell id="225" style="edgeStyle=none;html=1;exitX=0;exitY=0.5;exitDx=0;exitDy=0;shadow=0;entryX=0;entryY=0.5;entryDx=0;entryDy=0;" parent="1" source="228" target="229" edge="1">
                    <mxGeometry relative="1" as="geometry">
                        <mxPoint x="2358" y="490" as="targetPoint"/>
                        <Array as="points">
                            <mxPoint x="2358" y="200"/>
                            <mxPoint x="2358" y="317"/>
                        </Array>
                    </mxGeometry>
                </mxCell>
                <mxCell id="226" style="edgeStyle=none;html=1;exitX=0;exitY=0.5;exitDx=0;exitDy=0;shadow=0;entryX=0;entryY=0.5;entryDx=0;entryDy=0;" parent="1" source="228" target="230" edge="1">
                    <mxGeometry relative="1" as="geometry">
                        <mxPoint x="2368" y="630" as="targetPoint"/>
                        <Array as="points">
                            <mxPoint x="2358" y="200"/>
                            <mxPoint x="2358" y="437"/>
                        </Array>
                    </mxGeometry>
                </mxCell>
                <mxCell id="227" style="edgeStyle=none;html=1;exitX=0;exitY=0.5;exitDx=0;exitDy=0;shadow=0;entryX=0;entryY=0.5;entryDx=0;entryDy=0;" parent="1" source="228" target="231" edge="1">
                    <mxGeometry relative="1" as="geometry">
                        <mxPoint x="2378" y="720" as="targetPoint"/>
                        <Array as="points">
                            <mxPoint x="2358" y="200"/>
                            <mxPoint x="2358" y="557"/>
                        </Array>
                    </mxGeometry>
                </mxCell>
                <mxCell id="228" value="Contact" style="rounded=1;fillColor=#6a00ff;strokeColor=#3700CC;fontColor=#ffffff;fontStyle=1;fontFamily=Tahoma;fontSize=14" parent="1" vertex="1">
                    <mxGeometry x="2399" y="160" width="190" height="80" as="geometry"/>
                </mxCell>
                <mxCell id="229" value="Header/Nav" style="rounded=1;fillColor=#0050ef;strokeColor=#001DBC;fontColor=#ffffff;fontStyle=1;fontFamily=Tahoma;fontSize=14" parent="1" vertex="1">
                    <mxGeometry x="2438" y="277" width="200" height="80" as="geometry"/>
                </mxCell>
                <mxCell id="230" value="Content" style="rounded=1;fillColor=#0050ef;strokeColor=#001DBC;fontColor=#ffffff;fontStyle=1;fontFamily=Tahoma;fontSize=14" parent="1" vertex="1">
                    <mxGeometry x="2438" y="397" width="200" height="80" as="geometry"/>
                </mxCell>
                <mxCell id="231" value="Footer/About us section" style="rounded=1;fillColor=#0050ef;strokeColor=#001DBC;fontColor=#ffffff;fontStyle=1;fontFamily=Tahoma;fontSize=14" parent="1" vertex="1">
                    <mxGeometry x="2438" y="517" width="200" height="80" as="geometry"/>
                </mxCell>
                <mxCell id="232" style="edgeStyle=none;html=1;exitX=0;exitY=0.5;exitDx=0;exitDy=0;shadow=0;entryX=0;entryY=0.5;entryDx=0;entryDy=0;" parent="1" source="235" target="236" edge="1">
                    <mxGeometry relative="1" as="geometry">
                        <mxPoint x="2718" y="490" as="targetPoint"/>
                        <Array as="points">
                            <mxPoint x="2718" y="200"/>
                            <mxPoint x="2718" y="317"/>
                        </Array>
                    </mxGeometry>
                </mxCell>
                <mxCell id="233" style="edgeStyle=none;html=1;exitX=0;exitY=0.5;exitDx=0;exitDy=0;shadow=0;entryX=0;entryY=0.5;entryDx=0;entryDy=0;" parent="1" source="235" target="237" edge="1">
                    <mxGeometry relative="1" as="geometry">
                        <mxPoint x="2728" y="630" as="targetPoint"/>
                        <Array as="points">
                            <mxPoint x="2718" y="200"/>
                            <mxPoint x="2718" y="437"/>
                        </Array>
                    </mxGeometry>
                </mxCell>
                <mxCell id="234" style="edgeStyle=none;html=1;exitX=0;exitY=0.5;exitDx=0;exitDy=0;shadow=0;entryX=0;entryY=0.5;entryDx=0;entryDy=0;" parent="1" source="235" target="238" edge="1">
                    <mxGeometry relative="1" as="geometry">
                        <mxPoint x="2738" y="720" as="targetPoint"/>
                        <Array as="points">
                            <mxPoint x="2718" y="200"/>
                            <mxPoint x="2718" y="557"/>
                        </Array>
                    </mxGeometry>
                </mxCell>
                <mxCell id="235" value="Cart" style="rounded=1;fillColor=#6a00ff;strokeColor=#3700CC;fontColor=#ffffff;fontStyle=1;fontFamily=Tahoma;fontSize=14" parent="1" vertex="1">
                    <mxGeometry x="2759" y="160" width="190" height="80" as="geometry"/>
                </mxCell>
                <mxCell id="236" value="Header/Nav" style="rounded=1;fillColor=#0050ef;strokeColor=#001DBC;fontColor=#ffffff;fontStyle=1;fontFamily=Tahoma;fontSize=14" parent="1" vertex="1">
                    <mxGeometry x="2798" y="277" width="200" height="80" as="geometry"/>
                </mxCell>
                <mxCell id="237" value="Content" style="rounded=1;fillColor=#0050ef;strokeColor=#001DBC;fontColor=#ffffff;fontStyle=1;fontFamily=Tahoma;fontSize=14" parent="1" vertex="1">
                    <mxGeometry x="2798" y="397" width="200" height="80" as="geometry"/>
                </mxCell>
                <mxCell id="238" value="Footer/About us section" style="rounded=1;fillColor=#0050ef;strokeColor=#001DBC;fontColor=#ffffff;fontStyle=1;fontFamily=Tahoma;fontSize=14" parent="1" vertex="1">
                    <mxGeometry x="2798" y="517" width="200" height="80" as="geometry"/>
                </mxCell>
                <mxCell id="239" style="edgeStyle=none;html=1;exitX=0;exitY=0.5;exitDx=0;exitDy=0;shadow=0;entryX=0;entryY=0.5;entryDx=0;entryDy=0;" parent="1" source="242" target="243" edge="1">
                    <mxGeometry relative="1" as="geometry">
                        <mxPoint x="3078" y="490" as="targetPoint"/>
                        <Array as="points">
                            <mxPoint x="3078" y="200"/>
                            <mxPoint x="3078" y="317"/>
                        </Array>
                    </mxGeometry>
                </mxCell>
                <mxCell id="240" style="edgeStyle=none;html=1;exitX=0;exitY=0.5;exitDx=0;exitDy=0;shadow=0;entryX=0;entryY=0.5;entryDx=0;entryDy=0;" parent="1" source="242" target="244" edge="1">
                    <mxGeometry relative="1" as="geometry">
                        <mxPoint x="3088" y="630" as="targetPoint"/>
                        <Array as="points">
                            <mxPoint x="3078" y="200"/>
                            <mxPoint x="3078" y="437"/>
                        </Array>
                    </mxGeometry>
                </mxCell>
                <mxCell id="241" style="edgeStyle=none;html=1;exitX=0;exitY=0.5;exitDx=0;exitDy=0;shadow=0;entryX=0;entryY=0.5;entryDx=0;entryDy=0;" parent="1" source="242" target="245" edge="1">
                    <mxGeometry relative="1" as="geometry">
                        <mxPoint x="3098" y="720" as="targetPoint"/>
                        <Array as="points">
                            <mxPoint x="3078" y="200"/>
                            <mxPoint x="3078" y="557"/>
                        </Array>
                    </mxGeometry>
                </mxCell>
                <mxCell id="242" value="Payment" style="rounded=1;fillColor=#6a00ff;strokeColor=#3700CC;fontColor=#ffffff;fontStyle=1;fontFamily=Tahoma;fontSize=14" parent="1" vertex="1">
                    <mxGeometry x="3119" y="160" width="190" height="80" as="geometry"/>
                </mxCell>
                <mxCell id="243" value="Header/Nav" style="rounded=1;fillColor=#0050ef;strokeColor=#001DBC;fontColor=#ffffff;fontStyle=1;fontFamily=Tahoma;fontSize=14" parent="1" vertex="1">
                    <mxGeometry x="3158" y="277" width="200" height="80" as="geometry"/>
                </mxCell>
                <mxCell id="244" value="Content" style="rounded=1;fillColor=#0050ef;strokeColor=#001DBC;fontColor=#ffffff;fontStyle=1;fontFamily=Tahoma;fontSize=14" parent="1" vertex="1">
                    <mxGeometry x="3158" y="397" width="200" height="80" as="geometry"/>
                </mxCell>
                <mxCell id="245" value="Footer/About us section" style="rounded=1;fillColor=#0050ef;strokeColor=#001DBC;fontColor=#ffffff;fontStyle=1;fontFamily=Tahoma;fontSize=14" parent="1" vertex="1">
                    <mxGeometry x="3158" y="517" width="200" height="80" as="geometry"/>
                </mxCell>
                <mxCell id="250" value="" style="endArrow=classic;html=1;shadow=0;exitX=1;exitY=0.5;exitDx=0;exitDy=0;entryX=0;entryY=0.25;entryDx=0;entryDy=0;" parent="1" source="153" target="228" edge="1">
                    <mxGeometry relative="1" as="geometry">
                        <mxPoint x="718" y="980" as="sourcePoint"/>
                        <mxPoint x="1318" y="1090" as="targetPoint"/>
                        <Array as="points">
                            <mxPoint x="2308" y="1520"/>
                            <mxPoint x="2318" y="180"/>
                        </Array>
                    </mxGeometry>
                </mxCell>
                <mxCell id="251" value="page" style="edgeLabel;resizable=0;html=1;align=center;verticalAlign=middle;fontSize=16;" parent="250" connectable="0" vertex="1">
                    <mxGeometry relative="1" as="geometry"/>
                </mxCell>
                <mxCell id="253" value="" style="endArrow=classic;html=1;shadow=0;exitX=1;exitY=0.5;exitDx=0;exitDy=0;entryX=0;entryY=0.25;entryDx=0;entryDy=0;" parent="1" source="149" target="221" edge="1">
                    <mxGeometry relative="1" as="geometry">
                        <mxPoint x="718" y="980" as="sourcePoint"/>
                        <mxPoint x="1968" y="690" as="targetPoint"/>
                        <Array as="points">
                            <mxPoint x="1958" y="1160"/>
                            <mxPoint x="1958" y="183"/>
                        </Array>
                    </mxGeometry>
                </mxCell>
                <mxCell id="254" value="page" style="edgeLabel;resizable=0;html=1;align=center;verticalAlign=middle;fontSize=16;" parent="253" connectable="0" vertex="1">
                    <mxGeometry relative="1" as="geometry"/>
                </mxCell>
                <mxCell id="256" value="" style="endArrow=classic;html=1;shadow=0;fontSize=16;exitX=1;exitY=0.5;exitDx=0;exitDy=0;entryX=0;entryY=0.25;entryDx=0;entryDy=0;" parent="1" source="195" target="242" edge="1">
                    <mxGeometry relative="1" as="geometry">
                        <mxPoint x="658" y="1720" as="sourcePoint"/>
                        <mxPoint x="2168" y="1090" as="targetPoint"/>
                        <Array as="points">
                            <mxPoint x="3038" y="1880"/>
                            <mxPoint x="3038" y="180"/>
                        </Array>
                    </mxGeometry>
                </mxCell>
                <mxCell id="257" value="page" style="edgeLabel;resizable=0;html=1;align=center;verticalAlign=middle;fontSize=16;" parent="256" connectable="0" vertex="1">
                    <mxGeometry relative="1" as="geometry"/>
                </mxCell>
                <mxCell id="258" value="" style="endArrow=classic;html=1;shadow=0;fontSize=16;exitX=1;exitY=0.5;exitDx=0;exitDy=0;entryX=0;entryY=0.25;entryDx=0;entryDy=0;" parent="1" source="194" target="235" edge="1">
                    <mxGeometry relative="1" as="geometry">
                        <mxPoint x="658" y="1720" as="sourcePoint"/>
                        <mxPoint x="1828" y="1020" as="targetPoint"/>
                        <Array as="points">
                            <mxPoint x="2678" y="1760"/>
                            <mxPoint x="2678" y="180"/>
                        </Array>
                    </mxGeometry>
                </mxCell>
                <mxCell id="259" value="page" style="edgeLabel;resizable=0;html=1;align=center;verticalAlign=middle;fontSize=16;" parent="258" connectable="0" vertex="1">
                    <mxGeometry relative="1" as="geometry"/>
                </mxCell>
                <mxCell id="260" value="" style="endArrow=classic;html=1;shadow=0;exitX=1;exitY=0.5;exitDx=0;exitDy=0;entryX=0;entryY=0.25;entryDx=0;entryDy=0;" parent="1" source="151" target="213" edge="1">
                    <mxGeometry relative="1" as="geometry">
                        <mxPoint x="511" y="1400" as="sourcePoint"/>
                        <mxPoint x="1270" y="660" as="targetPoint"/>
                        <Array as="points">
                            <mxPoint x="911" y="1400"/>
                            <mxPoint x="1600" y="1400"/>
                            <mxPoint x="1600" y="180"/>
                        </Array>
                    </mxGeometry>
                </mxCell>
                <mxCell id="261" value="page" style="edgeLabel;resizable=0;html=1;align=center;verticalAlign=middle;fontSize=16;" parent="260" connectable="0" vertex="1">
                    <mxGeometry relative="1" as="geometry"/>
                </mxCell>
            </root>
        </mxGraphModel>
    </diagram>
</mxfile>